<?xml version="1.0" encoding="UTF-8" standalone="no"?>
<svg width="165px" height="28px" viewBox="0 0 165 28" version="1.1" xmlns="http://www.w3.org/2000/svg" xmlns:xlink="http://www.w3.org/1999/xlink">
    <!-- Generator: Sketch 40 (33762) - http://www.bohemiancoding.com/sketch -->
    <title>Artboard</title>
    <desc>Created with Sketch.</desc>
    <defs></defs>
    <g id="Page-1" stroke="none" stroke-width="1" fill="none" fill-rule="evenodd">
        <g id="Artboard">
            <path d="M7.576,18.668 C7.8760015,18.872001 8.2359979,19.0369994 8.656,19.163 C9.0760021,19.2890006 9.54399742,19.352 10.06,19.352 C10.7560035,19.352 11.307998,19.2260013 11.716,18.974 C12.124002,18.7219987 12.4359989,18.3560024 12.652,17.876 C12.8680011,17.3959976 13.0089997,16.8050035 13.075,16.103 C13.1410003,15.4009965 13.174,14.6060044 13.174,13.718 L13.174,7.22 L14.092,7.22 L14.092,13.718 C14.092,14.6900049 14.0500004,15.574996 13.966,16.373 C13.8819996,17.171004 13.6990014,17.8519972 13.417,18.416 C13.1349986,18.9800028 12.7300026,19.4179984 12.202,19.73 C11.6739974,20.0420016 10.9600045,20.198 10.06,20.198 C8.9799946,20.198 8.05600384,19.9340026 7.288,19.406 L7.576,18.668 Z M25.6720006,7.22 L26.4640006,7.22 L31.8640006,20 L30.8920006,20 L29.1100006,15.788 L23.0080006,15.788 L21.2260006,20 L20.2360006,20 L25.6720006,7.22 Z M28.8580006,15.032 L26.0680006,8.336 L23.2240006,15.032 L28.8580006,15.032 Z M38.4580011,20 L38.4580011,7.22 L39.3760011,7.22 L39.3760011,14.978 L46.8280011,7.22 L47.8900011,7.22 L42.5800011,12.818 L48.1600011,20 L47.1160011,20 L41.9860011,13.376 L39.3760011,16.058 L39.3760011,20 L38.4580011,20 Z M63.0520017,19.172 L63.0520017,20 L54.5380017,20 L54.5380017,7.22 L62.8900017,7.22 L62.8900017,8.048 L55.4560017,8.048 L55.4560017,13.07 L61.9540017,13.07 L61.9540017,13.862 L55.4560017,13.862 L55.4560017,19.172 L63.0520017,19.172 Z" id="JAKE" fill="#666666"></path>
            <path d="M102.674,20 L102.674,7.22 L103.592,7.22 L103.592,14.978 L111.044,7.22 L112.106,7.22 L106.796,12.818 L112.376,20 L111.332,20 L106.202,13.376 L103.592,16.058 L103.592,20 L102.674,20 Z M121.793,7.22 L122.585,7.22 L127.985,20 L127.013,20 L125.231,15.788 L119.129,15.788 L117.347,20 L116.357,20 L121.793,7.22 Z M124.979,15.032 L122.189,8.336 L119.345,15.032 L124.979,15.032 Z M132.253999,13.52 C132.253999,12.7519962 132.388998,11.9870038 132.658999,11.225 C132.929001,10.4629962 133.321997,9.782003 133.837999,9.182 C134.354002,8.581997 134.986996,8.09300189 135.736999,7.715 C136.487003,7.33699811 137.341995,7.148 138.301999,7.148 C139.442005,7.148 140.413995,7.40899739 141.217999,7.931 C142.022003,8.45300261 142.621997,9.12199592 143.017999,9.938 L142.261999,10.37 C142.033998,9.92599778 141.767001,9.5540015 141.460999,9.254 C141.154998,8.9539985 140.825001,8.71100093 140.470999,8.525 C140.116998,8.33899907 139.748001,8.20400042 139.363999,8.12 C138.979998,8.03599958 138.602001,7.994 138.229999,7.994 C137.413995,7.994 136.694003,8.15899835 136.069999,8.489 C135.445996,8.81900165 134.918002,9.24799736 134.485999,9.776 C134.053997,10.3040026 133.727001,10.9009967 133.504999,11.567 C133.282998,12.2330033 133.171999,12.9019966 133.171999,13.574 C133.171999,14.3300038 133.303998,15.0499966 133.567999,15.734 C133.832001,16.4180034 134.191997,17.0209974 134.647999,17.543 C135.104002,18.0650026 135.643996,18.4819984 136.267999,18.794 C136.892003,19.1060016 137.563996,19.262 138.283999,19.262 C138.668001,19.262 139.063997,19.2140005 139.471999,19.118 C139.880001,19.0219995 140.269998,18.872001 140.641999,18.668 C141.014001,18.463999 141.361998,18.2030016 141.685999,17.885 C142.010001,17.5669984 142.279998,17.1920022 142.495999,16.76 L143.287999,17.138 C143.071998,17.6180024 142.778001,18.0439981 142.405999,18.416 C142.033998,18.7880019 141.620002,19.0999987 141.163999,19.352 C140.707997,19.6040013 140.225002,19.7929994 139.714999,19.919 C139.204997,20.0450006 138.704002,20.108 138.211999,20.108 C137.335995,20.108 136.535003,19.9160019 135.808999,19.532 C135.082996,19.1479981 134.456002,18.6470031 133.927999,18.029 C133.399997,17.4109969 132.989001,16.7090039 132.694999,15.923 C132.400998,15.1369961 132.253999,14.3360041 132.253999,13.52 L132.253999,13.52 Z M148.636999,7.22 L153.100999,14.294 L157.582999,7.22 L158.608999,7.22 L153.568999,15.176 L153.568999,20 L152.650999,20 L152.650999,15.14 L147.628999,7.22 L148.636999,7.22 Z" id="KACY" fill="#666666"></path>
            <path d="M87.296,20 L85.82,18.452 C85.3159975,18.9920027 84.7340033,19.4149985 84.074,19.721 C83.4139967,20.0270015 82.7000038,20.18 81.932,20.18 C81.3679972,20.18 80.8400025,20.0960008 80.348,19.928 C79.8559975,19.7599992 79.4270018,19.5230015 79.061,19.217 C78.6949982,18.9109985 78.4040011,18.5450021 78.188,18.119 C77.9719989,17.6929979 77.864,17.2220026 77.864,16.706 C77.864,16.2739978 77.9359993,15.8810018 78.08,15.527 C78.2240007,15.1729982 78.4219987,14.8430015 78.674,14.537 C78.9260013,14.2309985 79.2139984,13.9460013 79.538,13.682 C79.8620016,13.4179987 80.2039982,13.1600013 80.564,12.908 C80.2399984,12.5599983 79.9670011,12.2480014 79.745,11.972 C79.5229989,11.6959986 79.3430007,11.4410012 79.205,11.207 C79.0669993,10.9729988 78.9680003,10.7480011 78.908,10.532 C78.8479997,10.3159989 78.818,10.0940011 78.818,9.866 C78.818,9.46999802 78.8989992,9.10100171 79.061,8.759 C79.2230008,8.41699829 79.4479986,8.12000126 79.736,7.868 C80.0240014,7.61599874 80.3629981,7.41800072 80.753,7.274 C81.1430019,7.12999928 81.5659977,7.058 82.022,7.058 C82.4420021,7.058 82.8319982,7.1179994 83.192,7.238 C83.5520018,7.3580006 83.8669986,7.52899889 84.137,7.751 C84.4070014,7.97300111 84.6199992,8.23999844 84.776,8.552 C84.9320008,8.86400156 85.01,9.20599814 85.01,9.578 C85.01,9.95000186 84.9350008,10.2919984 84.785,10.604 C84.6349993,10.9160016 84.4340013,11.2099986 84.182,11.486 C83.9299987,11.7620014 83.6360017,12.0229988 83.3,12.269 C82.9639983,12.5150012 82.6040019,12.7639987 82.22,13.016 L85.802,16.76 C86.0420012,16.3039977 86.2309993,15.8090027 86.369,15.275 C86.5070007,14.7409973 86.576,14.1800029 86.576,13.592 L87.62,13.592 C87.6079999,14.3360037 87.5090009,15.0379967 87.323,15.698 C87.1369991,16.3580033 86.8700017,16.9639972 86.522,17.516 L88.916,20 L87.296,20 Z M82.058,19.19 C82.6700031,19.19 83.2369974,19.0610013 83.759,18.803 C84.2810026,18.5449987 84.739998,18.1880023 85.136,17.732 L81.266,13.646 C80.6299968,14.0900022 80.1020021,14.5549976 79.682,15.041 C79.2619979,15.5270024 79.052,16.0939968 79.052,16.742 C79.052,17.138002 79.1389991,17.4889985 79.313,17.795 C79.4870009,18.1010015 79.7149986,18.358999 79.997,18.569 C80.2790014,18.779001 80.5999982,18.9349995 80.96,19.037 C81.3200018,19.1390005 81.6859981,19.19 82.058,19.19 L82.058,19.19 Z M79.952,9.83 C79.952,9.97400072 79.9729998,10.1179993 80.015,10.262 C80.0570002,10.4060007 80.1349994,10.5709991 80.249,10.757 C80.3630006,10.9430009 80.518999,11.1589988 80.717,11.405 C80.915001,11.6510012 81.1759984,11.9419983 81.5,12.278 C81.8480017,12.0379988 82.1689985,11.813001 82.463,11.603 C82.7570015,11.3929989 83.008999,11.183001 83.219,10.973 C83.429001,10.762999 83.5909994,10.5470011 83.705,10.325 C83.8190006,10.1029989 83.876,9.86600126 83.876,9.614 C83.876,9.14599766 83.7020017,8.7620015 83.354,8.462 C83.0059983,8.1619985 82.5620027,8.012 82.022,8.012 C81.7219985,8.012 81.4460013,8.05999952 81.194,8.156 C80.9419987,8.25200048 80.7230009,8.38399916 80.537,8.552 C80.3509991,8.72000084 80.2070005,8.91199892 80.105,9.128 C80.0029995,9.34400108 79.952,9.57799874 79.952,9.83 L79.952,9.83 Z" id="&amp;" fill="#B3C7C5"></path>
        </g>
    </g>
</svg>